<svg xmlns="http://www.w3.org/2000/svg" width="1920" height="1079" viewBox="0 0 1920 1079"><defs><style>.a{fill:#ff2c9c;}.b{fill:#d4ecff;}.c{fill:#396caa;}.d{fill:#5793ce;}.e{fill:#c4d9e8;}.f{fill:#173d7a;}.g{fill:#fff;}.h{fill:#d3d0cf;}.i{fill:#f2f2f2;}.j{fill:#ffc2b0;}.k{fill:#ea9c92;}.l{fill:#274f89;}.m{fill:#d3008d;}</style></defs><g transform="translate(0 0)"><path class="a" d="M0,0V233.523c25.5,16.445,59.26,20.646,89.312,11.114l153.12-48.555c25.031-7.992,44.769-24.68,54.176-45.8l57.6-129.1A67.751,67.751,0,0,0,360,0Z" transform="translate(0 0)"/><path class="b" d="M761.921,301.4,550.241,412c-23.595,12.288-30.914,38.369-16.352,58.266l71.232,97.11h156.8Z" transform="translate(1158.079 511.626)"/><path class="c" d="M269.28,369.537c-5.645-17.12-21.679-30.41-42.08-34.879l-124.8-27.11c-20.482-4.415-42.2.728-56.96,13.488L0,359.961V559.576H245.92l43.168-37.118C303.932,509.774,309.617,491.376,304,474.2Z" transform="translate(0 519.425)"/><path class="d" d="M.516.18,5.727-.051,5.057,17.5l-5.211.231Z" transform="matrix(0.248, 0.969, -0.969, 0.248, 1662.017, 814.12)"/><path class="d" d="M.515.179,5.727-.051,5.057,17.505l-5.211.231Z" transform="translate(1653.038 821.27) rotate(75.63)"/><path class="d" d="M.515.179,5.727-.051,5.057,17.505l-5.211.231Z" transform="translate(1644.25 828.468) rotate(75.63)"/><path class="d" d="M.516.18,5.727-.051,5.057,17.5l-5.211.231Z" transform="matrix(0.248, 0.969, -0.969, 0.248, 1635.745, 835.752)"/><path class="e" d="M620.918,137.13,459.606,216.9c-40.9-10.574-92.992-7.31-127.36,9.684-41.824,20.69-41.6,53.95.608,74.019A144.856,144.856,0,0,0,364.6,311.092a203.2,203.2,0,0,0,25.216,3.669c33.536,2.7,69.312-2.293,95.136-15.052,31.232-15.457,38.976-37.765,23.3-56.647l22.4-11.006-.64-11.9H553.43l-.608-11.168,23.424-.135-.576-11.141h23.392l-.576-11.168H621.91l-.608-11.141,25.024-.162,7.616-3.776,8.416-29.268Zm-226.976,152.6a51,51,0,0,1-39.584.243c-10.976-5.26-11.072-13.865-.16-19.26a51,51,0,0,1,39.584-.243C404.758,275.728,404.822,284.36,393.942,289.728Z" transform="translate(662.282 232.778)"/><path class="e" d="M584.949,476.911l-217.6-105.418c-14.656-7.121-12.8-19.584,4.1-27.811l211.2-102.721c16.9-8.092,42.464-9.145,57.12-2l217.6,105.391c14.656,7.148,12.8,19.584-4.1,27.811l-211.2,102.748C625.173,483.142,599.6,484.032,584.949,476.911Z" transform="translate(786.411 397.538)"/><path class="d" d="M673.658,357.875l-37.6-18.316,138.624-67.437c6.56-3.183,6.56-8.362,0-11.545L633.05,191.628a30.718,30.718,0,0,0-23.744,0l-138.656,67.6-37.6-18.316,138.656-67.437c27.264-13.272,71.648-13.272,98.944,0l141.632,68.921c27.264,13.272,27.264,34.879,0,48.15Z" transform="translate(952.71 277.575)"/><path class="b" d="M937.016,344.871c0-16.94-12.224-36.605-27.3-43.942L658.52,178.678c-6.752-3.291-12.8-3.534-17.7-1.295h0L340.92,324.289,630.936,508.528,926.392,363.969a13.514,13.514,0,0,0,2.624-1.295h0C933.944,359.572,937.016,353.341,937.016,344.871Z" transform="translate(750.024 298.618)"/><path class="f" d="M457.752,417.6,753.208,273.045a13.533,13.533,0,0,0,2.624-1.295h0c4.928-3.156,8-9.333,8-17.8a49.591,49.591,0,0,0-7.36-24.466L419.64,393.407Z" transform="translate(923.208 389.542)"/><path class="d" d="M617.116,416.271l-251.2-122.224c-15.072-7.337-27.3-26.975-27.3-43.969h0c0-16.967,12.224-24.736,27.3-17.4l251.2,122.251c15.072,7.337,27.3,26.975,27.3,43.969h0C644.412,415.759,632.188,423.528,617.116,416.271Z" transform="translate(744.964 390.281)"/><path class="g" d="M438.4,300.974,408.19,286.3a10.642,10.642,0,0,1-5.44-8.767h0c0-3.372,2.432-4.936,5.44-3.48l30.208,14.7a10.566,10.566,0,0,1,5.44,8.767h0C443.838,300.893,441.406,302.431,438.4,300.974Z" transform="translate(886.05 464.28)"/><path class="c" d="M343.03,188.86l51.616,24.709,52.64-26.031-.128-11.329-.448.216-.032-.782,23.392-.162-.128-11.141,22.976-.135-.16-11.168,22.976-.135-.128-11.141,22.944-.135-.128-11.168,24.544-.135,7.648-3.777L579.03,97.28l-.16-11.33-4.064,10.844-37.152-4.181Z" transform="translate(754.666 145.9)"/><path class="b" d="M394.574,205.176l52.672-26.031-.64-11.9,23.424-.162-.608-11.141,23.424-.135-.576-11.141,23.424-.162-.608-11.141,23.424-.135-.576-11.168,24.992-.135,7.616-3.776,8.416-29.268L537.614,84.22,342.99,180.467Z" transform="translate(754.578 142.963)"/><path class="c" d="M429.646,139.123a70.269,70.269,0,0,0-23.9-17.4,137.822,137.822,0,0,0-24.736-8.794L342.99,131.813l51.584,24.736Z" transform="translate(754.578 191.699)"/><path class="d" d="M533.132,91.352l1.408-4.909L527.6,85.66,363.18,166.99l8.64,4.127Z" transform="translate(798.996 145.408)"/><path class="h" d="M304.446,147.484l-.576-16.1,6.112,10.871Z" transform="translate(668.514 223.018)"/><path class="c" d="M335.9,207.3c42.176,20.177,110.272,19.773,152.1-.917,20.96-10.358,31.328-23.873,31.168-37.306h0L518.584,152l-3.488,3.264c-4.864-8.416-14.112-16.347-27.808-22.875-42.144-20.2-110.24-19.8-152.064.89S293.688,187.1,335.9,207.3Zm60.8-30.131c10.976,5.26,11.04,13.865.16,19.26a51,51,0,0,1-39.584.243c-10.976-5.26-11.072-13.892-.16-19.287A51.118,51.118,0,0,1,396.7,177.171Z" transform="translate(668.904 199.454)"/><path class="i" d="M335.687,201.3c42.144,20.177,110.24,19.773,152.064-.89s41.6-53.95-.608-74.019-110.272-19.8-152.1.89S293.511,181.1,335.687,201.3Zm60.8-30.131c10.976,5.26,11.04,13.892.16,19.26a51,51,0,0,1-39.584.243c-10.976-5.26-11.04-13.892,0-19.26a51,51,0,0,1,39.52-.243Z" transform="translate(668.505 189.352)"/><path class="d" d="M384.208,178.968a50.523,50.523,0,0,1-26.816-3.345c-7.872-3.776-10.112-9.279-6.752-14.081l-19.2-12.759L311.568,129.9c-15.36,18.882-7.264,41.272,24.224,56.378A151.709,151.709,0,0,0,382.96,198.9Z" transform="translate(668.848 220.505)"/><path class="b" d="M335.687,201.3A144.017,144.017,0,0,0,367.4,211.793a204.111,204.111,0,0,0,25.216,3.669c33.536,2.7,69.344-2.293,95.136-15.052,41.824-20.69,41.6-53.95-.608-74.019s-110.272-19.8-152.1.89S293.511,181.1,335.687,201.3Zm60.8-30.131c10.976,5.26,11.04,13.892.16,19.26a51,51,0,0,1-39.584.243c-10.976-5.26-11.04-13.892,0-19.26a51,51,0,0,1,39.52-.243Z" transform="translate(668.505 189.352)"/><path class="c" d="M307.583,161.011c2.048-10.3,11.136-20.393,27.3-28.378,37.184-18.4,97.76-18.882,135.3-.782,18.624,8.9,28.064,20.69,28.256,32.532,2.688-13.488-6.592-27.3-27.808-37.468-37.536-17.965-98.112-17.615-135.328.809C316.607,136.976,307.359,149.034,307.583,161.011Z" transform="translate(676.673 192.955)"/><path class="c" d="M330.429,279.471a48.388,48.388,0,0,1-21.088-4.586c-15.1-7.229-23.52-21.769-23.68-40.894-.288-34.933,28.544-77.742,64.288-95.411,19.584-9.684,38.688-11.033,53.792-3.8a39.539,39.539,0,0,1,15.648,13.191,48.225,48.225,0,0,1,8.16,27.7c.288,34.933-28.544,77.742-64.288,95.411a74.287,74.287,0,0,1-32.832,8.389Zm52.32-136.3a57.036,57.036,0,0,0-24.96,6.609c-31.584,15.592-57.056,53.41-56.8,84.243,0,14.378,5.792,24.979,16,29.861s23.872,3.561,38.592-3.723c31.552-15.592,57.024-53.411,56.768-84.243a37.461,37.461,0,0,0-5.952-21.337h0c-4.749-7.217-13.861-11.613-23.648-11.41Z" transform="translate(628.45 220.996)"/><path class="b" d="M325.768,153.455l30.016,6.177,4.32-18.883a51,51,0,0,1-39.584.243Z" transform="translate(705.144 238.923)"/><path class="b" d="M313.81,146.84a144.016,144.016,0,0,0,31.712,10.493A204.11,204.11,0,0,0,370.738,161c33.536,2.7,69.344-2.293,95.136-15.052l-122.24-2.32Z" transform="translate(690.382 243.812)"/><path class="c" d="M346.158,153.273A203.682,203.682,0,0,1,319.63,147.5v15.807A166.127,166.127,0,0,0,345.838,169C373.838,172.1,346.158,153.273,346.158,153.273Z" transform="translate(703.186 250.381)"/><path class="d" d="M338.038,152.3a141.273,141.273,0,0,1-17.28-5.4c-16.352-6.474,4.32,17.453,4.32,17.453s5.568,1.861,12.96,3.777Z" transform="translate(691.818 247.492)"/><path class="d" d="M472.34,251.445l-53.5,29.079-26.016-3.561L456.4,251.04Z" transform="translate(864.204 426.14)"/><path class="f" d="M430.642,306.975s-15.392-6.555-24.864,3.21S382.8,342.96,382.386,358.5s14.592,14.513,23.52,10.79,35.008-35.607,36.608-41.838-1.888-14.7-4.384-16.374A84.4,84.4,0,0,0,430.642,306.975Z" transform="translate(841.23 517.435)"/><path class="d" d="M418.564,306.439l.7,13.487a7.378,7.378,0,0,1-4.48,6.987,20.867,20.867,0,0,1-11.9,1.565c-11.552-1.7-12.64-4.4-13.472-17.884S418.564,306.439,418.564,306.439Z" transform="translate(856.668 514.841)"/><path class="f" d="M413.044,297.358s-15.424-6.555-24.864,3.183-23.008,32.775-23.424,48.339,14.624,14.513,23.552,10.79,35.008-35.58,36.576-41.811-1.856-14.7-4.352-16.374S413.044,297.358,413.044,297.358Z" transform="translate(802.444 501.102)"/><path class="d" d="M400.922,296.863l.7,13.487a7.409,7.409,0,0,1-4.512,7.013,20.711,20.711,0,0,1-11.84,1.43c-11.616-1.592-12.64-4.37-13.472-17.831S400.922,296.863,400.922,296.863Z" transform="translate(817.926 498.548)"/><path class="b" d="M555.112,219.4c-4.576-62.555-80.352,9.2-80.352,9.2l-51.872,42.863-46.72,43.16c-9.124,8.448-13.363,19.858-11.584,31.183l18.88,121.388c.925,5.984,7.018,10.436,14.176,10.358a59.331,59.331,0,0,0,7.008-.512c9.366-.864,16.256-7.8,15.616-15.726l-3.456-113.457,98.08-49.85S559.656,281.93,555.112,219.4Z" transform="translate(801.208 328.973)"/><path class="d" d="M418.1,245.716,404.151,241.4c-.32,0-23.712,19.1-23.52,25.761l10.5,2.859,26.368-21.58Z" transform="translate(837.385 409.776)"/><path class="d" d="M433.136,286.566s58.3-28.054,65.28-39.815c2.72-4.613,6.976-9.441-10.048-16.4L410.64,277.071,414,293.256Z" transform="translate(903.408 391.019)"/><path class="b" d="M572.73,228.344c-4.864-62.528-80.352,9.2-80.352,9.2l-51.872,42.863-46.688,43.16c-9.139,8.441-13.39,19.853-11.616,31.183l18.88,121.388c.952,5.987,7.043,10.439,14.208,10.385a59.421,59.421,0,0,0,6.976-.539c9.366-.864,16.255-7.8,15.616-15.727l-3.456-113.43,98.112-49.85S577.178,285.5,572.73,228.344Z" transform="translate(839.974 344.174)"/><path class="d" d="M503.6,142.043c57.6,20.1,56.32,48.717,56.32,48.717S548.659,295.746,552.5,365.854c1.6,29.295-184.7,31.534-156.8-46.667,32.768-92.174,20.48-166.813,35.808-178.035S488.755,136.864,503.6,142.043Z" transform="translate(864.269 229.376)"/><path class="j" d="M473.063,162.918c-3.008,9.819-18.3,15-34.144,11.572s-26.272-14.216-23.264-24.062,18.3-15,34.144-11.572S476.071,153.073,473.063,162.918Z" transform="translate(913.305 233.911)"/><path class="g" d="M450.456,179.312a49.541,49.541,0,0,1-10.368-1.133,39.716,39.716,0,0,1-20.16-10.412c-4.757-4.467-6.653-10.6-5.088-16.455,3.2-11.06,20.192-16.994,37.472-13.245a39.716,39.716,0,0,1,20.16,10.412c4.753,4.469,6.648,10.6,5.088,16.455C474.872,173.729,463.64,179.312,450.456,179.312Zm-8.64-37.765c-10.688,0-19.616,4.181-21.664,10.79a12.577,12.577,0,0,0,4.032,12.382,34.418,34.418,0,0,0,17.248,8.848c14.368,3.1,28.192-1.349,30.816-9.927a12.647,12.647,0,0,0-4.032-12.382,34.42,34.42,0,0,0-17.248-8.848,43.572,43.572,0,0,0-9.152-.836Z" transform="translate(911.464 232.461)"/><path class="j" d="M420.593,142.957a98.3,98.3,0,0,1-.48,17.291c-.32,4.829,19.712,9.333,24.9,4.99s3.2-8.929,4.352-25.356S420.593,142.957,420.593,142.957Z" transform="translate(924.239 226.277)"/><path class="k" d="M449.38,135.74s-4.928,15.241-29.28,21.067l.384-13.838Z" transform="translate(924.22 230.419)"/><path class="j" d="M493.917,138.992c6.114,19.933-8.1,40.271-31.744,45.425s-47.773-6.826-53.887-26.759,8.1-40.271,31.743-45.425,47.773,6.826,53.888,26.759Z" transform="translate(895.107 188.484)"/><path class="k" d="M461.476,131.091s-24.352,8.794-41.216,8.9-13.152-11.815-13.152-11.815L457.157,122Z" transform="translate(894.875 207.095)"/><path class="a" d="M428.492,161.664s21.216-7.607,39.808-4.424a20.135,20.135,0,0,1,11.264,5.638,6.945,6.945,0,0,0,3.392,2.077c3.2.62,8.7-10.79,15.136-11.195s10.688,3.561,5.44,10.79-3.488,15.025-1.088,16.185,28.1-15.43,5.472-53.222-80.16-17.453-89.12-9.792c0,0-9.408,6.933-17.088.755C401.58,118.342,393.132,172.589,428.492,161.664Z" transform="translate(881.62 178.841)"/><path class="j" d="M485.6,194.331v28.378a10.788,10.788,0,0,1-4.448,8.524L412,284.374l7.84,10.116,91.36-55.811a15.289,15.289,0,0,0,7.552-11.033l6.176-49.445Z" transform="translate(906.4 302.495)"/><path class="d" d="M465.823,150.49s20.96,26.6,28.8,96.571c0,0-35.808,9.765-56.16,4.235S465.823,150.49,465.823,150.49Z" transform="translate(953.505 255.457)"/><path class="c" d="M439.756,163s-8.224,37.037-8.672,54.436c-.167,4.8,3.327,9.143,8.672,10.79h0Z" transform="translate(948.372 276.693)"/><path class="f" d="M569.354,263.147l-15.264-1.7L455.466,213.46a15.946,15.946,0,0,0-12.32.432L373.258,247.88l-9.248-1.025V254.6h0a3.092,3.092,0,0,0,2.144,2.7L477.9,311.7a16.022,16.022,0,0,0,12.352-.432l76.1-37.037a4.287,4.287,0,0,0,3.008-3.48h0Z" transform="translate(800.822 360.595)"/><path class="c" d="M495.178,222.156l-7.008-3.426H411.242l-37.984,18.478-9.248-1.025v7.742h0a3.092,3.092,0,0,0,2.144,2.7L477.9,301.031a13.507,13.507,0,0,0,6.4,1Z" transform="translate(800.822 371.294)"/><path class="d" d="M368.106,225.649l-4.1-.459v7.742h0a3.091,3.091,0,0,0,2.144,2.7l1.952.971Z" transform="translate(800.822 382.26)"/><path class="l" d="M400,258.04a16.656,16.656,0,0,0,10.464-.54V244.31H400Z" transform="translate(880 414.716)"/><path class="g" d="M477.908,308.6,366.164,254.2c-3.2-1.538-2.784-4.208.864-5.988l76.128-37.037a15.945,15.945,0,0,1,12.32-.432l111.776,54.409c3.2,1.538,2.752,4.208-.9,5.988l-76.1,37.037a16.022,16.022,0,0,1-12.352.432Z" transform="translate(800.812 355.978)"/><path class="b" d="M464.02,287.842,371.22,242.6c-2.624-1.268-2.3-3.507.736-4.99L412.82,218.3a13.294,13.294,0,0,1,10.24-.378l92.8,45.237c2.624,1.295,2.3,3.507-.736,4.99l-40.768,19.341a13.254,13.254,0,0,1-10.336.351Z" transform="translate(812.78 368.487)"/><path class="j" d="M391.322,211.643l-1.152,6.5a40.683,40.683,0,0,0,.48,16.671l1.376,5.719c.785,3.236,3.825,5.746,7.68,6.339h0a6.052,6.052,0,0,0,4.087-.814,4.358,4.358,0,0,0,2.09-3.07l1.824-13.892s4.224,4.667,6.4,4.667-2.272-13.919-6.88-21.8S391.322,211.643,391.322,211.643Z" transform="translate(856.966 353.726)"/><path class="j" d="M433.024,183.665l-12,20.015a34.5,34.5,0,0,0-4.928,15.187L410.848,287.3l-15.776-.324L387.9,210.127a23.169,23.169,0,0,1,.416-7.121L396.544,164Z" transform="translate(853.152 278.39)"/><path class="f" d="M480.436,339.525l-9.376-10.3-98.528-48.1A11.139,11.139,0,0,1,366.8,271.9v-68l-5.664-6.258,5.312-2.7h0a4.226,4.226,0,0,1,3.872.189L482.1,249.7a11.139,11.139,0,0,1,5.728,9.225V333a3.931,3.931,0,0,1-2.112,3.938h0Z" transform="translate(794.508 330.264)"/><path class="c" d="M412.21,300.547l-6.976-3.426-38.4-56.27V203.9l-5.664-6.258,5.312-2.7h0a4.226,4.226,0,0,1,3.872.189l111.68,54.57a10.45,10.45,0,0,1,4.224,4.154Z" transform="translate(794.574 330.264)"/><path class="d" d="M363.716,200.364l-2.5-2.7,5.312-2.7h0a4.226,4.226,0,0,1,3.872.189l1.952.971Z" transform="translate(794.684 330.315)"/><path class="l" d="M407.158,215.24a11.719,11.719,0,0,1,4.672,7.931l-10.912,5.395L395.67,220.9Z" transform="translate(870.474 365.37)"/><path class="d" d="M478,250.67,366.318,196.18c-3.2-1.565-5.728,0-5.728,3.642V273.9a11.179,11.179,0,0,0,5.7,9.225l111.68,54.489c3.2,1.538,5.728,0,5.728-3.642V259.9a11.077,11.077,0,0,0-5.7-9.226Z" transform="translate(793.298 331.99)"/><path class="j" d="M439.672,227.676,437.88,230.8a22.5,22.5,0,0,1-9.216,8.713l-11.072,5.773a12.864,12.864,0,0,1-11.328.216l-.384-.189A5.526,5.526,0,0,1,403,241.186a5.14,5.14,0,0,1,1.954-4.5l11.584-10.062s-6.4,4.208-8.352,2.509c-1.344-1.241,6.4-7.283,12.192-7.5a25.657,25.657,0,0,0,11.584-4.073Z" transform="translate(886.535 369.308)"/><path class="d" d="M446.236,137.3s-42.4,38.979-59.616,74.721c11.641,15.092,29.469,26.04,50.08,30.752C472.284,251.431,446.236,137.3,446.236,137.3Z" transform="translate(850.564 233.067)"/><path class="c" d="M406.194,210.848l6.912-56.108L396.85,207.314q4.558,1.974,9.344,3.534Z" transform="translate(873.07 262.671)"/><path class="g" d="M423.054,136.077l-11.424-2.7a27.272,27.272,0,0,0,13.408,9.064c7.968,1.861,9.216-3.83,9.216-3.83Z" transform="translate(905.586 226.413)"/><path class="b" d="M369.47,136.38c-17.673,0-32-12.077-32-26.975s14.327-26.975,32-26.975,32,12.077,32,26.975-14.327,26.975-32,26.975Zm0-48.042c-13.825-.015-25.044,9.423-25.056,21.076s11.189,21.108,25.013,21.112,25.035-9.441,25.035-21.094C394.444,97.8,383.27,88.367,369.47,88.338Z" transform="translate(742.434 139.925)"/><path class="d" d="M565.148,198.541c-12.53,0-22.688-8.563-22.688-19.125s10.158-19.125,22.688-19.125,22.688,8.563,22.688,19.125C587.819,189.972,577.671,198.526,565.148,198.541Zm0-32.37c-8.677,0-15.712,5.93-15.712,13.245s7.034,13.245,15.712,13.245,15.712-5.93,15.712-13.245-7.034-13.245-15.712-13.245Z" transform="translate(1193.412 272.092)"/><path class="d" d="M327.722,327.314,312.33,300.9l31.3-12.975,15.392,26.409ZM321.674,303.6l9.216,15.834,18.784-7.8-9.216-15.834Z" transform="translate(687.126 488.761)"/><path class="d" d="M469.774,175.634,454.35,149.252l31.328-13,15.552,26.3Zm-6.08-23.711,9.248,15.834,18.784-7.769-9.248-15.861Z" transform="translate(999.57 231.284)"/><path class="d" d="M0,0,15.542,1l1,14L1,14Z" transform="translate(958.384 661.069) rotate(-26.18)"/><path class="m" d="M547.872,124.369,462.3,82.747a4.968,4.968,0,0,0-4.416-.3h0L449.6,86.5l5.824,1.78v52.547a13.5,13.5,0,0,0,6.88,11.087L544.1,191.7v6.177l8.384-4.073h0a4.794,4.794,0,0,0,2.3-4.613V135.456A13.438,13.438,0,0,0,547.872,124.369Z" transform="translate(989.12 139.312)"/><path class="a" d="M541.228,195.041,455.66,153.392a13.427,13.427,0,0,1-6.88-11.087V88.679c0-4.289,3.2-6.258,6.88-4.4l85.568,41.649c4.258,2.561,6.813,6.678,6.88,11.087v53.626C548.108,194.906,545.036,196.875,541.228,195.041Z" transform="translate(987.316 141.877)"/><path class="g" d="M467.84,108.382c0,3.1-2.56,4.343-5.76,2.7a10.589,10.589,0,0,1-5.76-8.443c0-3.1,2.56-4.343,5.76-2.7A10.589,10.589,0,0,1,467.84,108.382Z" transform="translate(1003.904 168.408)"/><path class="g" d="M473.332,111.523c0,3.1-2.592,4.37-5.76,2.7a10.607,10.607,0,0,1-5.792-8.416c0-3.1,2.592-4.37,5.792-2.7A10.6,10.6,0,0,1,473.332,111.523Z" transform="translate(1015.916 173.765)"/><path class="g" d="M478.8,114.692c0,3.1-2.592,4.343-5.792,2.7a10.589,10.589,0,0,1-5.76-8.443c0-3.1,2.56-4.343,5.76-2.7A10.6,10.6,0,0,1,478.8,114.692Z" transform="translate(1027.95 179.12)"/></g></svg>