<svg xmlns="http://www.w3.org/2000/svg" width="95.628" height="112" viewBox="0 0 95.628 112">
  <g id="location_1_" data-name="location (1)" transform="translate(-37.422)">
    <g id="Group_19" data-name="Group 19" transform="translate(37.422 0)">
      <ellipse id="Ellipse_2" data-name="Ellipse 2" cx="47.814" cy="8.067" rx="47.814" ry="8.067" transform="translate(0 95.865)" fill="#27d1b3"/>
      <path id="Path_233" data-name="Path 233" d="M133.053,459.811c0,4.455-21.406,8.068-47.813,8.068s-47.813-3.612-47.813-8.068a2.009,2.009,0,0,1,.744-1.426c8.458,2.272,23.439,3.781,40.512,3.781,23.522,0,43.081-2.866,47.072-6.641,4.624,1.242,7.3,2.713,7.3,4.286Z" transform="translate(-37.426 -355.879)" fill="#20b69f"/>
      <path id="Path_234" data-name="Path 234" d="M164.835,35.453c0,16.74-25.912,55.706-33.431,66.661a2.452,2.452,0,0,1-4.044,0C119.841,91.16,93.929,52.193,93.929,35.453a35.453,35.453,0,0,1,70.906,0Z" transform="translate(-81.568 0)" fill="#5167a3"/>
      <path id="Path_235" data-name="Path 235" d="M272.864,35.457c0,16.739-25.912,55.706-33.431,66.659a2.451,2.451,0,0,1-4.044,0c-.847-1.234-1.929-2.827-3.18-4.7,9.85-14.756,30.248-47.1,30.248-61.957A35.462,35.462,0,0,0,232.206.382a36.021,36.021,0,0,1,5.2-.378,35.453,35.453,0,0,1,35.453,35.453Z" transform="translate(-189.597 -0.003)" fill="#4d5f92"/>
    </g>
    <g id="Group_27" data-name="Group 27" transform="translate(62.272 16.62)">
      <g id="Group_20" data-name="Group 20" transform="translate(21.273 37.543)">
        <path id="Path_236" data-name="Path 236" d="M251.653,249.294v46.65a2.455,2.455,0,0,1-3.38,0v-46.65a1.69,1.69,0,0,1,3.38,0Z" transform="translate(-248.273 -247.604)" fill="#fc5a95"/>
      </g>
      <path id="Path_237" data-name="Path 237" d="M183.878,75.98A12.61,12.61,0,0,0,174.8,79.9a1.126,1.126,0,0,1-1.619,0A12.61,12.61,0,0,0,164.1,75.98c-7.22,0-13.074,6.246-13.074,13.952,0,6.734,6.153,18.175,19.782,25.18q1.243.639,2.569,1.226a1.52,1.52,0,0,0,1.226,0q1.326-.586,2.569-1.226c13.627-7,19.78-18.446,19.78-25.18,0-7.706-5.853-13.952-13.073-13.952Z" transform="translate(-151.024 -75.979)" fill="#fca5cd"/>
      <path id="Path_238" data-name="Path 238" d="M264.9,89.929c0,6.734-6.154,18.175-19.78,25.18q-1.244.639-2.57,1.226a1.519,1.519,0,0,1-1.226,0q-1.325-.586-2.569-1.226c-.255-.131-.507-.263-.755-.4,13.1-7.033,19.023-18.174,19.023-24.782a13.885,13.885,0,0,0-9.135-13.307,12.268,12.268,0,0,1,3.939-.646C259.049,75.977,264.9,82.223,264.9,89.929Z" transform="translate(-218.974 -75.977)" fill="#fc7cb6"/>
      <g id="Group_26" data-name="Group 26" transform="translate(13.033 17.856)">
        <g id="Group_25" data-name="Group 25">
          <g id="Group_23" data-name="Group 23">
            <g id="Group_21" data-name="Group 21">
              <path id="Path_239" data-name="Path 239" d="M212.292,162.062a1.69,1.69,0,0,1-1.69-1.69V159.3a1.69,1.69,0,0,1,3.38,0v1.076A1.69,1.69,0,0,1,212.292,162.062Z" transform="translate(-210.602 -157.606)" fill="#fc5a95"/>
            </g>
            <g id="Group_22" data-name="Group 22" transform="translate(16.481)">
              <path id="Path_240" data-name="Path 240" d="M287.635,162.062a1.69,1.69,0,0,1-1.69-1.69V159.3a1.69,1.69,0,0,1,3.38,0v1.076A1.69,1.69,0,0,1,287.635,162.062Z" transform="translate(-285.945 -157.606)" fill="#fc5a95"/>
            </g>
          </g>
          <g id="Group_24" data-name="Group 24" transform="translate(4.795 4.947)">
            <path id="Path_241" data-name="Path 241" d="M237.659,186.451a5.2,5.2,0,0,1-5.1-4.221,1.69,1.69,0,1,1,3.32-.633,1.817,1.817,0,0,0,3.569,0,1.69,1.69,0,1,1,3.32.633A5.2,5.2,0,0,1,237.659,186.451Z" transform="translate(-232.524 -180.223)" fill="#fc5a95"/>
          </g>
        </g>
      </g>
    </g>
  </g>
</svg>
