<svg id="map-24px" xmlns="http://www.w3.org/2000/svg" width="107.871" height="107.871" viewBox="0 0 107.871 107.871">
  <path id="Path_375" data-name="Path 375" d="M0,0H107.871V107.871H0Z" fill="none"/>
  <path id="Path_376" data-name="Path 376" d="M81.656,3l-.719.135-24,9.3L29.968,3,4.618,11.54A2.265,2.265,0,0,0,3,13.7V81.656A2.225,2.225,0,0,0,5.247,83.9l.719-.135,24-9.3L56.935,83.9l25.35-8.54A2.265,2.265,0,0,0,83.9,73.206V5.247A2.225,2.225,0,0,0,81.656,3ZM56.935,74.914,29.968,65.43V11.989l26.968,9.484Z" transform="translate(10.484 10.484)" fill="#008adf"/>
</svg>
