<svg xmlns="http://www.w3.org/2000/svg" width="39.144" height="39.144" viewBox="0 0 39.144 39.144">
  <path id="Path_364" data-name="Path 364" d="M5.872,5.872A17.768,17.768,0,0,1,19.572,0a17.768,17.768,0,0,1,13.7,5.872,17.768,17.768,0,0,1,5.872,13.7,17.768,17.768,0,0,1-5.872,13.7,17.768,17.768,0,0,1-13.7,5.872,17.768,17.768,0,0,1-13.7-5.872C2.283,29.358,0,25.117,0,19.572A17.768,17.768,0,0,1,5.872,5.872ZM28.379,28.379,30.663,26.1l-8.155-8.155L19.572,4.893H16.31V19.572a2.961,2.961,0,0,0,.979,2.283,1.139,1.139,0,0,0,.652.326Z" fill="#2699fb"/>
</svg>
