<svg xmlns="http://www.w3.org/2000/svg" width="36.208" height="36.208" viewBox="0 0 36.208 36.208">
  <path id="Path_363" data-name="Path 363" d="M5.431,5.431A16.436,16.436,0,0,1,18.1,0,16.436,16.436,0,0,1,30.777,5.431,16.436,16.436,0,0,1,36.208,18.1a16.436,16.436,0,0,1-5.431,12.673A16.436,16.436,0,0,1,18.1,36.208,16.436,16.436,0,0,1,5.431,30.777C2.112,27.156,0,23.234,0,18.1A16.436,16.436,0,0,1,5.431,5.431ZM20.518,32.588q1.81,0,4.526-2.716a13.179,13.179,0,0,0,2.112-6.336,5,5,0,0,0-1.509-3.621,5.312,5.312,0,0,0-3.923-1.81H18.708a8.81,8.81,0,0,1-2.716-.6,2.739,2.739,0,0,1-.905-2.112,1.568,1.568,0,0,1,.6-1.207,2.288,2.288,0,0,1,1.207-.6,2.059,2.059,0,0,1,1.509.905c.6.3.905.6,1.207.6a1.814,1.814,0,0,0,1.207-.3,1.814,1.814,0,0,0,.3-1.207,4.8,4.8,0,0,0-1.509-3.017,12.48,12.48,0,0,0,1.509-5.733.649.649,0,0,0-.6-.6,9.328,9.328,0,0,0-2.414-.6c-3.319.3-5.733.905-7.845,2.414a7.6,7.6,0,0,0-2.716,6.035A7.726,7.726,0,0,0,9.957,17.8a8.244,8.244,0,0,0,5.733,2.414h0v1.207A3.874,3.874,0,0,0,16.9,24.441a4.394,4.394,0,0,0,2.716,1.81v5.431c0,.3,0,.3.3.6S20.216,32.588,20.518,32.588Z" fill="#2699fb"/>
</svg>
