<svg id="rate_review-24px" xmlns="http://www.w3.org/2000/svg" width="80.445" height="80.445" viewBox="0 0 80.445 80.445">
  <path id="Path_369" data-name="Path 369" d="M0,0H80.445V80.445H0ZM51.451,21.486l-5.933-5.933a1.659,1.659,0,0,0-2.38,0L20.111,38.647v8.279H28.39L51.451,23.865A1.659,1.659,0,0,0,51.451,21.486Z" fill="none"/>
  <path id="Path_370" data-name="Path 370" d="M62.334,2H8.7a6.7,6.7,0,0,0-6.67,6.7L2,69.038,15.408,55.63H62.334a6.723,6.723,0,0,0,6.7-6.7V8.7A6.723,6.723,0,0,0,62.334,2ZM15.408,42.223V33.943L38.468,10.882a1.659,1.659,0,0,1,2.38,0l5.933,5.933a1.659,1.659,0,0,1,0,2.38L23.687,42.223Zm40.223,0H30.491l6.7-6.7H55.63Z" transform="translate(4.704 4.704)" fill="#008adf"/>
</svg>
